<svg xmlns="http://www.w3.org/2000/svg" viewBox="0 0 100 100">
  <!-- Background - dark navy -->
  <rect width="100" height="100" rx="16" fill="#0F172A"/>
  
  <!-- Shield shape - teal outline -->
  <path d="M50 12 L82 26 L82 48 C82 68 68 82 50 90 C32 82 18 68 18 48 L18 26 Z" 
        fill="none" 
        stroke="#14B8A6" 
        stroke-width="3"/>
  
  <!-- Inner shield fill -->
  <path d="M50 20 L74 31 L74 48 C74 63 63 74 50 80 C37 74 26 63 26 48 L26 31 Z" 
        fill="#134E4A" 
        opacity="0.6"/>
  
  <!-- AI Neural nodes - all teal -->
  <circle cx="50" cy="40" r="6" fill="#2DD4BF"/>
  <circle cx="36" cy="55" r="4" fill="#14B8A6"/>
  <circle cx="64" cy="55" r="4" fill="#14B8A6"/>
  <circle cx="50" cy="68" r="4" fill="#14B8A6"/>
  
  <!-- Connecting lines -->
  <line x1="50" y1="40" x2="36" y2="55" stroke="#14B8A6" stroke-width="1.5" opacity="0.7"/>
  <line x1="50" y1="40" x2="64" y2="55" stroke="#14B8A6" stroke-width="1.5" opacity="0.7"/>
  <line x1="36" y1="55" x2="50" y2="68" stroke="#14B8A6" stroke-width="1.5" opacity="0.7"/>
  <line x1="64" y1="55" x2="50" y2="68" stroke="#14B8A6" stroke-width="1.5" opacity="0.7"/>
</svg>
